:SAMPLES-PER-SECOND 30
:FRAME-RANGE 1-3549
:FULLY-SPECIFIED
:DEGREES
2108
root  9.46324 38.5709 19.5781 -2.8053 9.25916 -3.35645
RightUpLeg  -10.9549 -2.13674 8.05781
RightLeg  26.0675 -8.377 -4.22792
RightFoot  -12.8662 -0.0824347 0.350417
RightToes  -1.11029e-010 1.2921e-014 -6.02303e-014
Spine  5.50533 -2.7568 8.0856
Spine1  1.62855 -2.28702 4.37367
HEad  11.6471 -20.9237 1.32476
LeftShoulder1  1.78726 -1.57628 -29.1169
LeftArm  31.9181 -9.19854 -42.1327
LeftForeArm  -3.47147 -3.80915 -19.4413
LeftHand  0.152928 1.34971 -4.67677
RightShoulder  6.51328 7.8065 50.4511
RightArm  10.4021 -1.3555 10.4163
RightForeArm  21.3935 -4.05239 17.8021
RightHand  0.110855 3.69845 1.15867
LeftUpLeg  -15.1386 11.4851 7.40763
LeftLeg  61.6031 -1.25485 -1.94703
LeftFoot  4.04177 1.364 -10.2616
LeftToes  -1.9349e-011 -1.19469e-011 -2.02219e-012
2109
root  9.93182 38.8965 20.9744 -2.2572 7.17523 -2.14001
RightUpLeg  -7.51862 -2.1401 6.21088
RightLeg  23.345 -6.21887 -2.88394
RightFoot  -13.6255 -0.0865181 0.286068
RightToes  -1.11029e-010 1.2921e-014 -6.02303e-014
Spine  5.21304 -2.27375 7.77157
Spine1  1.13348 -1.75226 2.9681
HEad  11.9051 -20.8923 1.06102
LeftShoulder1  1.65374 -1.05957 -30.186
LeftArm  26.7662 -0.285487 -36.8333
LeftForeArm  -1.49192 -3.17407 -19.2699
LeftHand  0.129677 1.51407 -4.20071
RightShoulder  5.81658 6.73874 49.7639
RightArm  18.9034 -1.98459 10.8308
RightForeArm  17.2523 -2.15889 18.4981
RightHand  0.160411 4.25076 1.65182
LeftUpLeg  -17.822 12.2558 6.68271
LeftLeg  55.9924 -0.985437 -1.08432
LeftFoot  1.44408 0.978355 -8.79929
LeftToes  -1.9349e-011 -1.19469e-011 -2.02219e-012
2110
root  10.3658 39.1867 22.335 -1.69165 4.90753 -1.01648
RightUpLeg  -4.131 -2.65348 4.32637
RightLeg  20.1848 -3.4425 -1.66389
RightFoot  -14.0303 -0.0819196 0.55587
RightToes  -1.11029e-010 1.2921e-014 -6.02303e-014
Spine  4.9499 -1.81686 6.85868
Spine1  0.613918 -1.38685 1.89188
HEad  12.093 -20.293 0.991596
LeftShoulder1  1.48149 -0.529067 -30.6809
LeftArm  20.4065 8.86595 -32.3645
LeftForeArm  2.52033 -3.65855 -18.5495
LeftHand  0.130717 1.2968 -3.96754
RightShoulder  5.335 6.05492 48.9155
RightArm  24.5844 -2.67267 11.2405
RightForeArm  13.7713 -1.13221 18.8114
RightHand  0.172151 4.53177 1.724
LeftUpLeg  -19.333 13.3899 6.18682
LeftLeg  47.2614 -1.47874 -1.30692
LeftFoot  -0.319335 0.854485 -8.82558
LeftToes  -1.9349e-011 -1.19469e-011 -2.02219e-012
2111
root  10.7726 39.4181 23.6439 -1.07703 2.45404 -0.0979004
RightUpLeg  -0.97524 -3.18649 2.55341
RightLeg  16.8417 -0.432047 -0.844411
RightFoot  -14.2163 -0.0832293 0.51769
RightToes  -1.11029e-010 1.2921e-014 -6.02303e-014
Spine  4.64118 -1.30671 5.76072
Spine1  0.235821 -0.99304 0.920053
HEad  12.0875 -19.4597 1.09019
LeftShoulder1  1.292 -0.0201853 -30.6009
LeftArm  17.3808 17.522 -29.238
LeftForeArm  3.26454 -4.82101 -17.9199
LeftHand  0.128151 1.26985 -3.86337
RightShoulder  4.73432 5.0311 48.6228
RightArm  28.1545 -2.08418 11.0429
RightForeArm  12.0769 2.0454 18.4528
RightHand  0.23207 4.8229 2.33658
LeftUpLeg  -19.5311 14.9912 5.90204
LeftLeg  35.5181 -2.72596 -1.74058
LeftFoot  -0.551013 0.839507 -8.84303
LeftToes  -1.9349e-011 -1.19469e-011 -2.02219e-012
2112
root  11.1831 39.5871 24.8996 -0.396301 0.109253 0.671875
RightUpLeg  2.02452 -3.6324 0.840837
RightLeg  13.2427 2.47523 -0.553514
RightFoot  -14.2171 -0.0695796 1.06248
RightToes  -1.11029e-010 1.2921e-014 -6.02303e-014
Spine  4.16264 -0.856589 4.55503
Spine1  0.148023 -0.616246 -0.0602881
HEad  11.7863 -18.4791 1.37894
LeftShoulder1  1.12825 0.389392 -30.1539
LeftArm  15.0002 24.9153 -27.09
LeftForeArm  3.89431 -4.9308 -17.7007
LeftHand  0.145206 1.22548 -4.29627
RightShoulder  4.54124 4.75113 48.2221
RightArm  29.1898 -1.78598 10.953
RightForeArm  11.7639 4.35734 17.7838
RightHand  0.24982 4.9714 2.49233
LeftUpLeg  -18.517 16.6361 5.64263
LeftLeg  21.1407 -3.71291 -1.26376
LeftFoot  0.747057 1.08965 -10.3142
LeftToes  -1.9349e-011 -1.19469e-011 -2.02219e-012
2113
root  11.636 39.6588 26.1425 0.0621948 -1.97809 1.19751
RightUpLeg  4.92428 -3.96981 -0.762678
RightLeg  10.064 5.0739 -0.781473
RightFoot  -14.4703 -0.042246 2.04134
RightToes  -1.11029e-010 1.2921e-014 -6.02303e-014
Spine  3.71273 -0.543729 3.59508
Spine1  0.390942 -0.269662 -0.994334
HEad  11.4433 -17.5321 1.47928
LeftShoulder1  1.00067 0.713333 -29.7772
LeftArm  12.6958 30.6695 -25.4981
LeftForeArm  5.03881 -3.68902 -17.9402
LeftHand  0.165363 1.10615 -4.70893
RightShoulder  4.5967 4.90112 47.9356
RightArm  28.516 -1.20731 10.8021
RightForeArm  11.704 5.26969 17.3877
RightHand  0.225962 4.84926 2.25976
LeftUpLeg  -16.2019 12.7912 7.61216
LeftLeg  6.91143 2.48882 -1.79756
LeftFoot  1.97704 1.29453 -11.1646
LeftToes  -1.9349e-011 -1.19469e-011 -2.02219e-012
2114
root  12.1551 39.5737 27.3991 0.296509 -3.63586 1.23535
RightUpLeg  7.4241 -4.13221 -1.9723
RightLeg  8.23249 7.18651 -1.24338
RightFoot  -15.3551 0.00649178 3.1536
RightToes  -1.11029e-010 1.2921e-014 -6.02303e-014
Spine  3.3274 -0.412692 3.26923
Spine1  0.776198 -0.0314669 -1.83634
HEad  11.0668 -16.6013 1.63719
LeftShoulder1  0.945467 0.860223 -29.6781
LeftArm  11.9357 34.6673 -24.2413
LeftForeArm  5.54737 -1.86047 -18.4075
LeftHand  0.192466 1.08319 -5.41922
RightShoulder  4.81414 5.29517 47.9513
RightArm  25.0877 -0.311199 10.4654
RightForeArm  13.7681 4.53443 17.3428
RightHand  0.195703 4.88483 1.90837
LeftUpLeg  -15.0884 10.5521 9.26192
LeftLeg  -2.15063 7.79279 -3.65736
LeftFoot  2.1207 1.2453 -10.6383
LeftToes  -1.9349e-011 -1.19469e-011 -2.02219e-012
2115
root  12.7628 39.3528 28.6928 0.34021 -4.68085 1.33691
RightUpLeg  9.27291 -4.33539 -3.35714
RightLeg  8.34758 8.5956 -1.72631
RightFoot  -17.0463 0.110317 4.5311
RightToes  -1.11029e-010 1.2921e-014 -6.02303e-014
Spine  3.2636 -0.439766 2.80231
Spine1  0.827556 -0.039054 -2.09901
HEad  11.098 -15.8776 1.54956
LeftShoulder1  0.92962 0.91381 -29.8073
LeftArm  13.2721 37.0995 -23.5296
LeftForeArm  5.41668 -0.714728 -18.7888
LeftHand  0.205809 1.14932 -5.88543
RightShoulder  5.14121 5.87262 48.0517
RightArm  20.1238 0.534434 10.1345
RightForeArm  16.057 2.80534 17.4596
RightHand  0.159565 4.70284 1.53931
LeftUpLeg  -15.0503 10.5069 9.15313
LeftLeg  -5.24828 9.79018 -4.34487
LeftFoot  1.38163 1.30009 -11.7059
LeftToes  -1.9349e-011 -1.19469e-011 -2.02219e-012
2116
root  13.4184 39.1184 30.0292 0.083313 -4.90509 1.75854
RightUpLeg  11.2503 -4.05917 -5.11495
RightLeg  9.10627 8.99416 -2.06322
RightFoot  -18.588 0.287427 6.52472
RightToes  -1.11029e-010 1.2921e-014 -6.02303e-014
Spine  3.37315 -0.528652 1.71603
Spine1  1.07615 -0.147522 -2.01565
HEad  11.4931 -15.9407 1.63254
LeftShoulder1  0.959582 0.843036 -29.9822
LeftArm  14.9722 37.9864 -23.6053
LeftForeArm  6.208 -0.476589 -18.9257
LeftHand  0.220062 0.931687 -5.93521
RightShoulder  5.19059 5.94537 48.14
RightArm  13.7483 1.2838 9.91603
RightForeArm  18.8967 0.777719 17.3059
RightHand  0.176257 4.74989 1.72003
LeftUpLeg  -16.0518 9.76884 7.75646
LeftLeg  -1.975 10.5109 -3.62682
LeftFoot  4.16679 1.22882 -9.19682
LeftToes  -1.9349e-011 -1.19469e-011 -2.02219e-012
2117
root  14.1317 38.8125 31.463 -0.515137 -5.04279 2.07178
RightUpLeg  12.965 -1.28593 -6.26237
RightLeg  11.5336 7.31492 -2.10894
RightFoot  -20.0025 0.566591 9.25924
RightToes  -1.11029e-010 1.2921e-014 -6.02303e-014
Spine  3.33856 -0.364463 1.12895
Spine1  1.48982 0.000417215 -1.98718
HEad  12.017 -16.6398 1.59505
LeftShoulder1  0.986711 0.768467 -29.992
LeftArm  16.8462 37.4559 -24.3263
LeftForeArm  6.11296 -1.13722 -18.9262
LeftHand  0.224509 0.765858 -5.80742
RightShoulder  5.22204 5.95754 48.3711
RightArm  8.91234 0.918188 9.52444
RightForeArm  20.1511 0.309225 16.8474
RightHand  0.191231 4.61638 1.92506
LeftUpLeg  -16.3526 9.38681 6.5544
LeftLeg  2.13248 9.26404 -3.14632
LeftFoot  12.1532 1.3318 -6.75834
LeftToes  -1.9349e-011 -1.19469e-011 -2.02219e-012
2118
root  14.7864 38.6303 32.8231 -1.09216 -5.07867 3.06726
RightUpLeg  13.6356 7.90454 -6.24151
RightLeg  16.0461 -0.894797 -1.57023
RightFoot  -20.1042 0.914583 13.6655
RightToes  -1.11029e-010 1.2921e-014 -6.02303e-014
Spine  3.96377 -0.123507 -0.857549
Spine1  1.2024 0.0674112 -1.65327
HEad  12.9831 -17.5844 1.57915
LeftShoulder1  0.942201 0.924324 -30.4492
LeftArm  18.2286 35.1346 -24.8607
LeftForeArm  4.77709 -1.96302 -18.899
LeftHand  0.218722 0.799477 -5.70782
RightShoulder  5.29661 5.95095 49.0985
RightArm  6.55719 0.544011 9.06011
RightForeArm  19.2489 0.172545 16.6769
RightHand  0.196206 4.60512 1.98566
LeftUpLeg  -17.7529 13.4648 3.69173
LeftLeg  9.5785 4.21519 -2.58541
LeftFoot  10.4448 0.728633 -4.1178
LeftToes  -1.9349e-011 -1.19469e-011 -2.02219e-012
2119
root  15.3804 38.5479 34.0366 -1.3067 -4.83008 4.58154
RightUpLeg  11.5139 10.2664 -8.38336
RightLeg  24.1978 -2.94138 -1.66309
RightFoot  -18.0813 1.08968 20.4039
RightToes  -1.11029e-010 1.2921e-014 -6.02303e-014
Spine  4.61371 0.0802603 -3.10035
Spine1  0.918125 0.0812712 -2.11278
HEad  13.9496 -18.8054 1.50436
LeftShoulder1  0.941031 0.987477 -31.3251
LeftArm  18.1851 30.5782 -25.462
LeftForeArm  3.85114 -2.33935 -18.8467
LeftHand  0.196409 0.960081 -5.35169
RightShoulder  5.29319 5.77261 50.007
RightArm  3.78719 0.517243 9.2395
RightForeArm  20.3688 -0.691441 16.4256
RightHand  0.221041 4.59482 2.27672
LeftUpLeg  -18.4704 16.4037 0.114621
LeftLeg  14.5972 0.811568 -1.64714
LeftFoot  6.39801 0.552892 -3.79237
LeftToes  -1.9349e-011 -1.19469e-011 -2.02219e-012
